<svg width="190" height="55" viewBox="0 0 190 55" fill="none" xmlns="http://www.w3.org/2000/svg">
<path d="M37.4995 48.5335C37.6038 48.4292 37.7428 48.3249 37.8471 48.2206C37.9861 48.0815 38.1251 47.9772 38.2989 47.8034C40.2451 45.9956 41.6005 43.8748 42.2956 41.5107C42.3999 41.2326 42.6084 40.2592 42.6431 40.1549C42.8517 39.1814 42.9559 38.1037 42.9559 36.9911L42.9907 15.8534C42.9907 13.9064 43.651 10.7427 45.493 8.23957L45.7362 7.89191L42.4346 5.00632L37.5691 0.799622L36.6655 0.0347682L36.2832 0.243367C35.7271 0.556262 35.171 0.799625 34.5455 1.11252C34.0937 1.32112 33.6071 1.52971 33.1205 1.73831C32.9468 1.80784 32.773 1.87737 32.634 1.9469H32.5992C32.2864 2.0512 31.9389 2.1555 31.6261 2.29457C31.4176 2.3641 31.1743 2.43363 30.9658 2.50316C30.3402 2.71176 29.8537 2.81606 29.4019 2.92036H29.3671C29.3324 2.92036 29.2976 2.95512 29.2629 2.95512C29.2281 2.95512 29.1586 2.98989 29.0891 2.98989C28.7068 3.05942 28.3245 3.16372 27.9074 3.23325C27.0734 3.37231 26.2045 3.51138 25.2661 3.61568C24.3278 3.68521 23.5632 3.75474 22.8334 3.75474C22.3816 3.75474 21.9993 3.75474 21.617 3.71998C21.1999 3.68521 20.7829 3.65044 20.4006 3.65044C19.4622 3.54614 18.5934 3.40708 17.7593 3.26802C17.377 3.19849 16.9947 3.09419 16.6124 2.98989C15.8478 2.81606 15.0485 2.53793 14.0754 2.22503C13.4845 2.01644 12.9632 1.80784 12.4419 1.59924C12.3724 1.56448 12.2682 1.52971 12.1986 1.49494C12.1291 1.46018 12.0596 1.42541 11.9901 1.39064C11.6078 1.21681 11.2255 1.04298 10.8432 0.869153C10.7042 0.799621 10.5652 0.730092 10.3914 0.660559C10.3219 0.625793 10.2177 0.591026 10.1482 0.55626C9.97439 0.451962 9.76587 0.382428 9.5921 0.27813L9.00128 0L8.23669 0.660559L7.54161 1.28635L0 7.82238L0.208524 8.13527C1.98098 11.0556 2.67606 13.2111 2.67606 15.7838L2.6413 36.9216C2.6413 37.9994 2.74557 39.0771 2.91933 40.0506V40.0853C2.91933 40.0853 2.95409 40.2939 2.98884 40.3287C3.0236 40.433 3.0236 40.5373 3.05835 40.6068L3.0931 40.7459C3.51015 42.4842 4.34425 44.2225 5.45638 45.7174C5.59539 45.8913 5.69965 46.0303 5.80392 46.2042L5.90818 46.3085C5.94293 46.378 6.01244 46.4128 6.04719 46.4823L6.15145 46.5866C6.18621 46.6561 6.25572 46.6909 6.29047 46.7604C6.60326 47.1429 6.9508 47.4905 7.33309 47.8382L7.36784 47.8729C7.4026 47.9077 7.43735 47.9425 7.47211 47.9425C7.50686 47.9772 7.54161 48.012 7.57637 48.0468C7.61112 48.0815 7.68063 48.1511 7.71538 48.1858L7.95866 48.3944C8.02817 48.464 8.09768 48.4987 8.16719 48.5683H8.20194C8.3062 48.6726 8.44522 48.7421 8.54948 48.8464C8.65374 48.9507 8.79276 49.0202 8.89702 49.1245L9.07079 49.2636C9.24456 49.4027 9.41833 49.507 9.5921 49.646C9.80062 49.7851 10.0439 49.9589 10.2872 50.098C10.7042 50.3761 11.1213 50.5847 11.4688 50.7933C11.5383 50.8281 11.6426 50.8976 11.7121 50.9324C11.7816 50.9671 11.8511 51.0019 11.9554 51.0714C12.4072 51.3148 12.9632 51.5929 13.6236 51.9058C14.4229 52.2535 15.257 52.6011 16.2301 52.9836L16.4039 53.0531C16.7514 53.1574 17.099 53.2965 17.4117 53.4008C18.3849 53.7137 19.2885 54.0265 20.1226 54.2699C20.5396 54.3742 20.9567 54.5133 21.3389 54.6176C21.8255 54.7566 22.2425 54.8609 22.5553 54.9652L22.6944 55L22.8334 54.9652C23.1809 54.8609 23.5632 54.7566 23.9455 54.6523C24.3625 54.548 24.8143 54.409 25.3009 54.2699C26.1002 54.0265 27.0386 53.7484 27.977 53.4355C28.3592 53.3312 28.7415 53.1922 29.1933 53.0183C29.2281 53.0183 29.2629 52.9836 29.2976 52.9836C29.3324 52.9488 29.4019 52.9488 29.4366 52.9488H29.4714C30.0969 52.7054 30.6183 52.4968 31.0701 52.2882L31.3828 52.1492C31.5219 52.0796 31.6261 52.0449 31.7651 51.9753C31.8694 51.9406 31.9737 51.871 32.0779 51.8363C32.2864 51.732 32.5297 51.6277 32.773 51.4886L32.9815 51.3843C33.0858 51.3496 33.1901 51.28 33.2943 51.2453C33.7114 51.0367 34.2327 50.7238 34.754 50.4109C35.3796 50.0284 36.0051 49.6112 36.5612 49.1941C36.9782 48.9507 37.2215 48.7421 37.4995 48.5335Z" fill="#132944"/>
<path d="M37.3607 7.40516L37.2911 7.2661L36.5266 4.76294L35.6577 7.40516H34.7194H33.2944H32.9469L33.2944 7.64852L34.7194 8.69151L35.1364 9.0044L34.7194 10.3255L34.3023 11.6119L34.7194 11.3337L36.4918 10.0126L37.2911 10.6036L38.7161 11.6466L37.8472 9.0044L40.0715 7.40516H37.3607Z" fill="#FFCF57"/>
<path d="M29.506 24.7534C29.645 24.6491 29.7492 24.4753 29.7492 24.2667C29.7492 24.0581 29.645 23.8843 29.506 23.78C29.4365 23.7104 29.3322 23.7104 29.2279 23.7104C28.9152 23.7104 28.6719 23.9538 28.6719 24.2667C28.6719 24.5796 28.9152 24.823 29.2279 24.823C29.3322 24.8577 29.4365 24.7882 29.506 24.7534Z" fill="#FFCF57"/>
<path d="M28.0465 19.1562C27.7684 19.1562 27.5251 19.3996 27.5251 19.7125C27.5251 20.0254 27.7684 20.2688 28.0465 20.2688C28.3592 20.2688 28.6025 20.0254 28.6025 19.7125C28.6025 19.3996 28.3592 19.1562 28.0465 19.1562Z" fill="#FFCF57"/>
<path d="M36.4916 25.3793H34.7191H33.2594L32.7381 25.3445H31.765V26.6656H32.7381H33.2594H34.7191H36.4916H37.2561H37.2909V25.3793H36.4916Z" fill="#FFCF57"/>
<path d="M31.1049 25.3445H29.5062H29.2281V26.6656H29.5062H31.1049H31.7652V25.3445H31.1049Z" fill="#FFCF57"/>
<path d="M37.291 23.7454C36.9782 23.7454 36.7697 23.9887 36.7697 24.3016C36.7697 24.6145 37.0129 24.8579 37.291 24.8579C37.6037 24.8579 37.847 24.6145 37.847 24.3016C37.8123 23.9887 37.6037 23.7454 37.291 23.7454Z" fill="#FFCF57"/>
<path d="M42.4346 5.00632L37.5691 0.799622L36.6654 0.0347682L36.2832 0.243367C35.7271 0.556262 35.171 0.799625 34.5455 1.11252C34.0937 1.32112 33.6071 1.52971 33.1205 1.73831C32.9468 1.80784 32.773 1.87737 32.634 1.9469H32.5992C32.2864 2.0512 31.9389 2.1555 31.6261 2.29457C31.4176 2.3641 31.1743 2.43363 30.9658 2.50316C30.3402 2.71176 29.8537 2.81606 29.4019 2.92036H29.3671C29.3324 2.92036 29.2976 2.95512 29.2628 2.95512C29.2281 2.95512 29.1586 2.98989 29.0891 2.98989C28.7068 3.05942 28.3245 3.16372 27.9074 3.23325C27.0734 3.37231 26.2045 3.51138 25.2661 3.61568C24.3278 3.68521 23.5632 3.75474 22.8334 3.75474C22.3816 3.75474 21.9993 3.75474 21.617 3.71998C21.1999 3.68521 20.7829 3.65044 20.4006 3.65044C19.4622 3.54614 18.5934 3.40708 17.7593 3.26802C17.377 3.19849 16.9947 3.09419 16.6124 2.98989C15.8478 2.81606 15.0485 2.53793 14.0754 2.22503C13.4845 2.01644 12.9632 1.80784 12.4419 1.59924C12.3724 1.56448 12.2682 1.52971 12.1986 1.49494C12.1291 1.46018 12.0596 1.42541 11.9901 1.39064C11.6078 1.21681 11.2255 1.04298 10.8432 0.869153C10.7042 0.799621 10.5652 0.730092 10.3914 0.660559C10.3219 0.625793 10.2177 0.591026 10.1482 0.55626C9.97439 0.451962 9.76587 0.382428 9.5921 0.27813L9.00128 0L8.23669 0.660559L7.54161 1.28635L0 7.82238L0.208524 8.13527C1.98098 11.0556 2.67606 13.2111 2.67606 15.7838L2.6413 36.9216C2.6413 37.9994 2.74556 39.0771 2.91933 40.0506V40.0853C2.91933 40.0853 2.95409 40.2939 2.98884 40.3287C3.0236 40.433 3.0236 40.5373 3.05835 40.6068L3.0931 40.7459C3.51015 42.4842 4.34425 44.2225 5.45637 45.7174C5.59539 45.8913 5.69965 46.0303 5.80391 46.2042L5.90818 46.3085C5.94293 46.378 6.01244 46.4128 6.04719 46.4823L6.15145 46.5866C6.18621 46.6561 6.25572 46.6909 6.29047 46.7604C6.60326 47.1429 6.9508 47.4905 7.33309 47.8382L7.36784 47.8729C7.4026 47.9077 7.43735 47.9425 7.47211 47.9425C7.50686 47.9772 7.54161 48.012 7.57637 48.0468C7.61112 48.0815 7.68063 48.1511 7.71538 48.1858L7.95866 48.3944C8.02817 48.464 8.09768 48.4987 8.16718 48.5683H8.20194C8.3062 48.6726 8.44522 48.7421 8.54948 48.8464C8.65374 48.9507 8.79276 49.0202 8.89702 49.1245L9.07079 49.2636C9.24456 49.4027 9.41833 49.507 9.5921 49.646C9.80062 49.7851 10.0439 49.9589 10.2872 50.098C10.7042 50.3761 11.1213 50.5847 11.4688 50.7933C11.5383 50.8281 11.6426 50.8976 11.7121 50.9324C11.7816 50.9671 11.8511 51.0019 11.9554 51.0714C12.4072 51.3148 12.9632 51.5929 13.6236 51.9058C14.4229 52.2535 15.257 52.6011 16.2301 52.9836L16.4039 53.0531C16.7514 53.1574 17.099 53.2965 17.4117 53.4008C18.3849 53.7137 19.2885 54.0265 20.1226 54.2699C20.5396 54.3742 20.9566 54.5133 21.3389 54.6176C21.8255 54.7566 22.2425 54.8609 22.5553 54.9652L22.6943 55L22.8334 54.9652C23.1809 54.8609 23.5632 54.7566 23.9455 54.6523C24.3625 54.548 24.8143 54.409 25.3009 54.2699C26.1002 54.0265 27.0386 53.7484 27.977 53.4355C28.3592 53.3312 28.7415 53.1922 29.1933 53.0183C29.2281 53.0183 29.2629 52.9836 29.2976 52.9836C29.3324 52.9488 29.4019 52.9488 29.4366 52.9488H29.4714C30.0969 52.7054 30.6183 52.4968 31.0701 52.2882L31.3828 52.1492C31.5219 52.0796 31.6261 52.0449 31.7651 51.9753C31.8694 51.9406 31.9737 51.871 32.0779 51.8363C32.2864 51.732 32.5297 51.6277 32.773 51.4886L32.9815 51.3843C33.0858 51.3496 33.1901 51.28 33.2943 51.2453C33.7114 51.0367 34.2327 50.7238 34.754 50.4109C35.3795 50.0284 36.0051 49.6112 36.5612 49.1941C36.8392 48.9855 37.1172 48.7769 37.3605 48.5335C37.4648 48.4292 37.6038 48.3249 37.7081 48.2206C37.8471 48.0815 37.9861 47.9772 38.1599 47.8034C40.1061 45.9956 41.4615 43.8748 42.1566 41.5107C42.2608 41.2326 42.4694 40.2592 42.5041 40.1549C42.7126 39.1814 42.8169 38.1037 42.8169 36.9911L42.8517 15.8534C42.8517 13.9064 43.512 10.7427 45.3539 8.23957L45.5972 7.89191L42.4346 5.00632ZM36.9087 47.8382C36.6654 48.0468 36.3874 48.2554 36.1441 48.464C35.5881 48.8812 34.9973 49.2636 34.4064 49.646C33.9199 49.9589 33.3986 50.237 32.9815 50.4456C32.8773 50.4804 32.773 50.5499 32.6687 50.5847L32.4602 50.689C32.2517 50.7933 32.0432 50.8976 31.7999 51.0019C31.6956 51.0367 31.5914 51.1062 31.4871 51.141C31.3481 51.2105 31.2438 51.2453 31.1048 51.3148C31.0005 51.3496 30.8963 51.4191 30.792 51.4539C30.3402 51.6624 29.8537 51.8363 29.2281 52.0796C29.1586 52.1144 29.0891 52.1144 29.0543 52.1492C29.0196 52.1492 28.9848 52.1839 28.9501 52.1839H28.9153C28.4635 52.3578 28.0812 52.4968 27.7337 52.6011C26.7953 52.914 25.857 53.1922 25.0924 53.4355C24.6406 53.5746 24.1888 53.6789 23.7717 53.818C23.4242 53.9223 23.0766 53.9918 22.7639 54.0961C22.4511 53.9918 22.0688 53.8875 21.6517 53.7832C21.2694 53.6789 20.8524 53.5398 20.4353 53.4355C19.636 53.1922 18.7324 52.914 17.7593 52.6011C17.4465 52.4968 17.099 52.3578 16.7514 52.2535L16.5776 52.1839C15.6393 51.8363 14.8052 51.4886 14.0406 51.141C13.3803 50.8281 12.859 50.5847 12.4072 50.3413C12.3377 50.3066 12.2334 50.237 12.1639 50.2023C12.0944 50.1675 12.0249 50.1327 11.9206 50.0632C11.5731 49.8546 11.1908 49.646 10.7737 49.4027C10.5305 49.2636 10.2872 49.0898 10.0787 48.9507C9.90488 48.8464 9.73111 48.7073 9.55734 48.603L9.38357 48.464C9.27931 48.3597 9.1403 48.2901 9.03603 48.1858C8.93177 48.0815 8.79276 48.012 8.68849 47.9077C8.61899 47.8382 8.54948 47.8034 8.47997 47.7339C8.51473 47.6991 8.58423 47.6991 8.61899 47.6991L8.68849 47.6643C8.89702 47.5948 9.1403 47.4905 9.34882 47.3862C9.55734 47.2819 9.76587 47.1776 9.97439 47.0733L10.0439 47.0386C10.2872 46.9343 10.4957 46.7952 10.739 46.6909C11.0865 46.5171 11.4688 46.378 11.7816 46.3085H11.8164C11.9206 46.2737 12.0596 46.2389 12.1986 46.2389H12.3724C12.7547 46.2389 13.137 46.3432 13.6236 46.5171C14.0059 46.6561 14.3534 46.83 14.7704 47.0386C15.257 47.2819 15.7436 47.5253 16.2301 47.6991C16.6819 47.8729 17.1337 47.9425 17.5855 47.9772H17.655C18.5934 47.9772 19.497 47.5253 20.3658 47.1081L20.5048 47.0386C20.8176 46.8647 21.2694 46.6561 21.6865 46.4823C22.0688 46.3432 22.4163 46.2737 22.7639 46.2737C23.4589 46.2737 24.2235 46.6214 25.0229 47.0038L25.1619 47.0733C26.0307 47.4905 26.9691 47.9425 27.9074 48.012H28.0465C28.4288 48.012 28.8458 47.9425 29.2628 47.8034L29.3324 47.7686C29.3671 47.7339 29.4019 47.7339 29.4366 47.7339C29.4714 47.7339 29.5409 47.6991 29.5756 47.6991C29.9927 47.5253 30.4445 47.3167 30.8615 47.1081C30.9658 47.0386 31.1048 47.0038 31.2091 46.9343C31.4176 46.83 31.6261 46.7257 31.8694 46.6214C32.1474 46.5171 32.4255 46.4128 32.7382 46.3432C32.8773 46.3085 33.0163 46.3085 33.1553 46.3085H33.19C33.5723 46.3085 33.9894 46.378 34.4412 46.5518C34.8235 46.6909 35.2058 46.8995 35.6228 47.1081C35.7966 47.2124 36.0051 47.2819 36.1789 47.3862C36.4917 47.5253 36.735 47.6644 37.013 47.7339C37.0477 47.7339 36.9782 47.7686 36.9087 47.8382ZM41.4615 41.2326C40.7664 43.4576 39.55 45.4046 37.6733 47.1429C37.6038 47.2124 37.5343 47.2472 37.4995 47.3167C37.43 47.2819 37.3258 47.2472 37.2563 47.2124C36.9782 47.1429 36.735 47.0038 36.4569 46.8995C35.8661 46.6214 35.2753 46.2737 34.6845 46.0651C34.2327 45.8913 33.7461 45.787 33.2596 45.787H33.2248C33.051 45.787 32.8773 45.787 32.7035 45.8217C32.3907 45.8913 32.0432 45.9956 31.7304 46.1346C31.5219 46.2042 31.2786 46.3432 31.0353 46.4475C30.514 46.6909 29.9579 47.0038 29.4366 47.1776C29.3324 47.2124 29.2281 47.2472 29.1586 47.2819C28.811 47.3862 28.4288 47.4557 28.0812 47.4557H27.9422C27.0733 47.421 26.1697 46.969 25.2661 46.5171C24.432 46.0999 23.6327 45.7522 22.7986 45.7522C22.3816 45.7522 21.9645 45.8565 21.5475 45.9956C21.1304 46.1346 20.7134 46.3432 20.3311 46.5518C19.4622 46.969 18.5934 47.421 17.7245 47.421H17.655C17.2727 47.421 16.8904 47.3167 16.4734 47.1776C15.6045 46.8647 14.7357 46.3432 13.9016 46.0303C13.415 45.8565 12.9285 45.7174 12.4767 45.7174H12.2682C12.1291 45.7174 11.9554 45.7522 11.7816 45.787C11.3993 45.8565 11.017 46.0303 10.6347 46.2042C10.3914 46.3085 10.1829 46.4475 9.93964 46.5518C9.69636 46.6561 9.48784 46.7952 9.24456 46.8995C9.00128 47.0038 8.758 47.1081 8.54948 47.2124C8.44522 47.2472 8.3062 47.2819 8.16718 47.3515L8.09768 47.3167C8.06292 47.2819 8.02817 47.2472 7.99341 47.2472L7.95866 47.2124C7.61112 46.8995 7.29833 46.5518 6.98555 46.2389C6.91604 46.1694 6.88129 46.1346 6.84653 46.0651L6.77703 45.9608C6.74227 45.8913 6.67276 45.8565 6.63801 45.787L6.53375 45.6827C6.46424 45.6131 6.42949 45.5436 6.35998 45.4393C6.32522 45.4046 6.32522 45.3698 6.29047 45.335C6.25572 45.3002 6.25572 45.2655 6.22096 45.2307C6.1167 45.0917 6.04719 44.9526 5.94293 44.8483C5.94293 44.8135 5.90818 44.8135 5.90818 44.7788C5.83867 44.6397 5.73441 44.5354 5.6649 44.3963C5.6649 44.3616 5.63014 44.3616 5.63014 44.3268C5.56064 44.1877 5.45637 44.0487 5.38687 43.9096C5.38687 43.9096 5.38687 43.8748 5.35211 43.8748C5.28261 43.7358 5.2131 43.5967 5.14359 43.4576C5.14359 43.4576 5.14359 43.4229 5.10884 43.4229C5.03933 43.2838 4.96982 43.1448 4.90031 43.0057C4.90031 42.9709 4.86556 42.9709 4.86556 42.9362C4.79605 42.7971 4.72654 42.658 4.69179 42.519C4.69179 42.4842 4.65703 42.4842 4.65703 42.4494C4.51802 42.1713 4.41376 41.8584 4.30949 41.5803V41.5455C4.23999 41.3369 4.17048 41.0936 4.10097 40.885C4.17048 40.9197 4.23999 40.9545 4.23999 40.9545C4.8308 41.2674 5.52588 41.6498 6.25572 41.8932C6.42949 41.9627 6.5685 41.9975 6.74227 42.0322C6.98555 42.1018 7.19407 42.1018 7.4026 42.1018C7.54161 42.1018 7.71538 42.1018 7.88915 42.067C8.09768 42.0322 8.34096 41.9627 8.58423 41.8932C8.82751 41.8236 9.07079 41.7193 9.27931 41.5803C9.52259 41.476 9.76587 41.3369 9.97439 41.2326C10.2177 41.0936 10.4262 40.9893 10.6695 40.885C11.0518 40.7111 11.4341 40.5373 11.8164 40.4678C11.9554 40.433 12.1291 40.3982 12.3029 40.3982C12.3724 40.3982 12.4419 40.3982 12.5114 40.3982C12.998 40.3982 13.4845 40.5373 13.9363 40.7459C14.7704 41.0588 15.6393 41.5803 16.5081 41.8932C16.8904 42.0322 17.3075 42.1365 17.6898 42.1365H17.7593C18.6281 42.1365 19.497 41.6846 20.3658 41.2326C20.7829 41.024 21.1999 40.8502 21.5822 40.6764C21.9993 40.5025 22.4163 40.3982 22.8334 40.3982C23.6675 40.3982 24.4668 40.7807 25.3009 41.1978C26.2045 41.615 27.1081 42.1018 27.977 42.1365C28.0117 42.1365 28.0465 42.1365 28.116 42.1365C28.4635 42.1365 28.8458 42.067 29.1933 41.9279C29.2628 41.8932 29.3671 41.8584 29.4714 41.8236C29.9927 41.615 30.514 41.3369 31.0701 41.0588C31.3133 40.9545 31.5219 40.8502 31.7651 40.7459C32.0779 40.6068 32.4255 40.5025 32.7382 40.433C32.912 40.3982 33.0858 40.3982 33.2596 40.3635H33.2943C33.7461 40.3635 34.2327 40.5025 34.7192 40.6764C35.31 40.9197 35.9009 41.2326 36.4917 41.5107C36.7697 41.615 37.013 41.7541 37.291 41.8236C37.7081 41.9975 38.1251 42.067 38.5769 42.067C39.5848 42.067 40.5579 41.5107 41.4615 41.0588C41.4963 41.024 41.531 41.024 41.5658 40.9892C41.5658 40.9892 41.6005 40.9893 41.6005 40.9545C41.531 41.0936 41.4963 41.1979 41.4615 41.2326ZM11.5383 34.5228H10.7042H10.6V32.3673H10.7042H11.5383V34.5228ZM11.8511 36.6783H12.3377H12.5114V38.8338H12.3377H11.8511H11.5383V36.6783H11.8511ZM13.9711 32.3673H14.4577V34.5228H13.9711H13.4845V32.3673H13.9711ZM13.5193 30.5942V28.4387H14.0059H14.4924V30.5942H14.0059H13.5193ZM20.4353 28.1606H20.9219V30.3161H20.4353H19.9488V28.1606H20.4353ZM19.9488 26.0746V23.9191H20.4353H20.9219V26.0746H20.4353H19.9488ZM25.3704 28.2301H25.857V30.3856H25.3704H24.8838V28.2301H25.3704ZM24.8838 26.0746V23.9191H25.3704H25.857V26.0746H25.3704H24.8838ZM25.3704 32.5411H25.857V34.6966H25.3704H24.8838V32.5411H25.3704ZM32.7382 36.713H33.2248V38.8685H32.7382H32.2517V36.713H32.7382ZM32.7382 30.629V28.4734H33.2596H33.7114V30.629H33.2596H32.7382ZM32.2517 34.5575H31.7651H31.2786V32.402H31.7651H32.2517V34.5575ZM34.1979 34.5575V32.402H34.6845H35.171V34.5575H34.6845H34.1979ZM42.1218 15.8186L42.0871 36.9564C42.0871 38.0341 41.9828 39.0076 41.809 39.9463C41.809 40.0158 41.7743 40.1201 41.7395 40.2244C41.6005 40.3287 41.4615 40.433 41.253 40.5721C41.2182 40.6068 41.1835 40.6068 41.1487 40.6416L40.9402 40.7459C40.1408 41.1631 39.3415 41.615 38.5074 41.615C38.1599 41.615 37.8123 41.5455 37.43 41.3717C37.2215 41.3021 37.013 41.1979 36.7697 41.0936L36.6654 41.0588C36.5959 41.024 36.5264 40.9893 36.4569 40.9545V40.2592V27.1871H34.6845H33.2596H32.7382H31.7651H31.1048H30.0622V40.2244V41.024C29.8884 41.0935 29.7147 41.1979 29.5409 41.2674V38.347V28.8211L29.2628 28.5778L28.0465 27.5695L27.6642 27.2566V40.3635V41.5803C27.4904 41.5455 27.3514 41.5107 27.1776 41.4412V40.5721L27.2124 22.7023H25.4399H21.7212H20.5048H18.7324L18.6976 40.9197V41.5107C18.5239 41.5803 18.3501 41.615 18.1763 41.6498V40.9545V28.8906L17.794 28.5778L16.6124 27.5695L16.2996 27.3262V41.3022C16.1258 41.2326 15.9521 41.1631 15.7783 41.0588V27.2914H14.0059H12.3377H11.8511H10.7042H10.0091H9.31407V41.0936C9.27931 41.0936 9.24456 41.1283 9.2098 41.1283L9.07079 41.1978C8.86226 41.3021 8.65374 41.3717 8.44522 41.476C8.27145 41.5455 8.02817 41.615 7.81965 41.6498C7.68063 41.6846 7.54161 41.6846 7.43735 41.6846C7.26358 41.6846 7.05506 41.6498 6.88129 41.615H6.84653C6.70752 41.5803 6.60326 41.5455 6.42949 41.5107L4.48326 40.6068C4.27474 40.5025 4.10097 40.3982 3.96195 40.3287V40.2939C3.96195 40.2244 3.89245 40.0506 3.89245 40.0158C3.71868 39.0771 3.61441 38.1037 3.61441 37.0607L3.64917 15.9229C3.64917 13.2807 2.98884 11.0556 1.25114 8.13527L6.5685 3.51138L8.20194 2.08597L8.89702 1.46018L9.24456 1.18205L9.27931 1.21681C9.45308 1.32111 9.66161 1.39065 9.83538 1.49494C9.90488 1.52971 10.0091 1.56448 10.0787 1.59924C10.2177 1.66878 10.3567 1.73831 10.5305 1.80784H10.5652C10.9475 1.98167 11.3298 2.1555 11.7121 2.32933C11.7816 2.3641 11.8859 2.39886 11.9901 2.43363C12.0596 2.46839 12.1291 2.50316 12.1986 2.53793C12.72 2.74652 13.276 2.98989 13.8668 3.19849C14.8399 3.54615 15.674 3.82427 16.4734 3.9981C16.8557 4.1024 17.2727 4.17194 17.655 4.27623C18.5239 4.45006 19.4275 4.55436 20.3658 4.65866C20.7481 4.69343 21.1652 4.7282 21.5822 4.76296C21.9645 4.76296 22.3816 4.79773 22.8334 4.79773C23.598 4.79773 24.3973 4.7282 25.3357 4.65866C26.274 4.55436 27.1776 4.4153 28.0465 4.27623C28.4635 4.2067 28.8458 4.1024 29.2628 4.03287H29.2976C29.3324 4.03287 29.3671 4.03287 29.4019 3.9981C29.4366 3.9981 29.5061 3.96334 29.5756 3.96334C30.0274 3.85904 30.5487 3.71998 31.1743 3.51138C31.4176 3.44185 31.6261 3.37232 31.8694 3.26802C32.1822 3.16372 32.5297 3.02466 32.8425 2.92036L32.912 2.88559C33.051 2.81606 33.2248 2.74652 33.3638 2.71176H33.3986C33.8851 2.50316 34.4064 2.29456 34.8582 2.08597C35.4838 1.80784 36.0051 1.52971 36.5264 1.25158L42.0523 6.04931L44.4851 8.17004C42.7474 10.6732 42.1218 13.8369 42.1218 15.8186Z" fill="#FFCF57"/>
<path d="M18.2805 19.7125C18.2805 19.3996 18.0372 19.1562 17.7244 19.1562C17.4116 19.1562 17.1683 19.3996 17.1683 19.7125C17.1683 20.0254 17.4116 20.2688 17.7244 20.2688C18.0372 20.2688 18.2805 19.9906 18.2805 19.7125Z" fill="#FFCF57"/>
<path d="M25.3705 20.79H21.6518H20.4355H17.7594V22.0764H20.4355H21.6518H25.3705L28.0466 22.1111V20.79H25.3705Z" fill="#FFCF57"/>
<path d="M25.3704 15.2274L28.0465 12.9676L29.2629 11.9594L29.5409 11.716L29.6452 11.6465C29.8537 11.7508 30.097 11.7508 30.2012 11.5422L31.1048 10.2559L31.4871 9.73438L31.1048 9.90821L29.5061 10.6731H29.4714C29.2976 10.7774 29.2281 10.986 29.2976 11.2293L29.2281 11.2989L28.0117 12.3071L25.3357 14.5669L24.6058 15.1927L24.8491 15.6794L25.3704 15.2274Z" fill="#FFCF57"/>
<path d="M24.8838 15.6448L21.6517 18.3913L20.4353 19.4343L19.4622 20.2687H20.4353H21.6517H25.3703H27.1428L25.3703 16.6878L24.8838 15.6448Z" fill="#FFCF57"/>
<path d="M30.8615 14.9495C30.2707 14.2542 30.3749 12.9331 29.7841 12.2378L29.5756 12.4464L29.2976 12.6897L28.0812 13.698C28.672 14.4281 28.6025 15.7144 29.1585 16.4445C29.1933 16.4793 29.2281 16.514 29.2628 16.5488C29.3323 16.6183 29.4366 16.7226 29.5408 16.7922C29.9926 17.1051 30.653 17.2789 31.1048 17.5918C31.2785 17.6961 31.4176 17.8004 31.5566 17.9394C31.4871 17.6613 31.348 17.3832 31.1048 17.105C30.7225 16.6183 30.2359 16.1664 30.0622 15.6796C30.4444 15.6796 30.7572 15.8187 31.1048 15.8882C31.3133 15.923 31.5218 15.9578 31.7651 15.923C31.9041 15.923 32.0084 15.8882 32.1474 15.8187C32.0431 15.7839 31.9041 15.7492 31.7651 15.6796C31.5566 15.5753 31.3133 15.4363 31.1048 15.2624C31.0353 15.1581 30.931 15.0538 30.8615 14.9495Z" fill="#FFCF57"/>
<path d="M13.1023 14.0802C13.1023 13.7673 12.859 13.5239 12.581 13.5239C12.5115 13.5239 12.442 13.5239 12.3725 13.5587C12.1639 13.6282 12.0249 13.8368 12.0249 14.0802C12.0249 14.3235 12.1639 14.5321 12.3725 14.6017H12.4072L12.3725 14.7407L11.8859 16.3052L10.739 20.1643L10.044 22.4936L9.34888 24.8229H10.044H10.739H11.8859H12.3725H12.581C12.5115 24.8229 12.442 24.8229 12.3725 24.7882C12.1639 24.6839 12.0249 24.51 12.0249 24.2667C12.0249 24.0233 12.1639 23.8147 12.3725 23.7452C12.442 23.7104 12.5115 23.7104 12.581 23.7104C12.8938 23.7104 13.1371 23.9538 13.1371 24.2667C13.1371 24.5796 12.8938 24.8229 12.581 24.8229H14.0407H15.8131L14.0407 18.9127L12.7548 14.5669C12.9285 14.5321 13.1023 14.3235 13.1023 14.0802Z" fill="#FFCF57"/>
<path d="M21.6517 17.7308L24.6405 15.1929L23.1461 12.1682C23.3199 12.0987 23.4589 11.8901 23.4589 11.6815C23.4589 11.3686 23.2156 11.1252 22.9376 11.1252C22.6248 11.1252 22.3815 11.3686 22.3815 11.6815C22.3815 11.9249 22.5205 12.0987 22.6595 12.1682L21.6517 14.2194L20.4353 16.7226L18.6628 20.3035L20.4353 18.8086L21.6517 17.7308Z" fill="#FFCF57"/>
<path d="M16.5778 23.7104C16.265 23.7104 16.0217 23.9538 16.0217 24.2667C16.0217 24.5796 16.265 24.823 16.5778 24.823C16.8906 24.823 17.0991 24.5796 17.0991 24.2667C17.0991 23.9538 16.8558 23.7104 16.5778 23.7104Z" fill="#FFCF57"/>
<path d="M12.3377 25.3445H11.8512H10.7043H10.0092H9.31411H8.58428H8.51477V26.6308H8.58428H9.31411H10.0092H10.7043H11.8512H12.3377H14.0059H16.5777V25.3445H14.0059H12.3377Z" fill="#FFCF57"/>
<path d="M33.1204 14.6364L32.7729 15.7837L31.7998 19.017L31.1047 21.2768L30.0273 24.8229H31.07H31.7303H32.7034H33.2247C32.9814 24.8229 32.7729 24.6491 32.7034 24.4753C32.6686 24.4057 32.6686 24.3362 32.6686 24.2667C32.6686 24.1971 32.6686 24.1276 32.7034 24.0581C32.7729 23.8495 32.9814 23.7104 33.2247 23.7104C33.5375 23.7104 33.746 23.9538 33.746 24.2667C33.746 24.5796 33.5027 24.8229 33.2247 24.8229H34.6496H36.4221L34.6496 18.9127L33.3637 14.6017C33.5722 14.5321 33.746 14.3235 33.746 14.0802C33.746 13.7673 33.5027 13.5239 33.2247 13.5239C32.9814 13.5239 32.8077 13.663 32.7382 13.8368C32.7034 13.9064 32.6686 13.9759 32.6686 14.0454C32.6686 14.1149 32.7034 14.2193 32.7382 14.2888C32.8077 14.4626 32.9467 14.5669 33.1204 14.6364Z" fill="#FFCF57"/>
<path d="M8.58431 24.7883C8.86234 24.7535 9.03611 24.5102 9.03611 24.232C9.03611 23.9539 8.82759 23.7453 8.58431 23.6758C8.54956 23.6758 8.5148 23.6758 8.5148 23.6758C8.20202 23.6758 7.95874 23.9191 7.95874 24.232C7.95874 24.5449 8.20202 24.7883 8.5148 24.7883C8.54956 24.8231 8.58431 24.7883 8.58431 24.7883Z" fill="#FFCF57"/>
<path d="M9.27933 12.7939H9.34884C9.59211 12.7939 9.80064 12.7939 10.0439 12.7243C10.2872 12.6896 10.5305 12.62 10.739 12.5505C11.156 12.4114 11.5731 12.2028 11.8859 11.9247C12.0249 11.8204 12.1639 11.7161 12.2682 11.5771C12.2682 11.5771 12.3029 11.5423 12.3377 11.5423C12.3377 11.5423 12.3377 11.5423 12.3724 11.5075C12.3724 11.5075 12.3724 11.5075 12.3724 11.4728C13.137 10.7079 13.5888 9.63016 13.5888 8.48288C13.5888 7.33559 13.137 6.25784 12.4072 5.49299C12.4072 5.49299 12.4072 5.49299 12.4072 5.45823C12.4072 5.45823 12.3724 5.45822 12.3724 5.42346C12.3724 5.42346 12.3377 5.38869 12.3029 5.38869C12.1639 5.24962 12.0596 5.14533 11.9206 5.04103C11.5731 4.7629 11.1908 4.55431 10.7737 4.41524C10.5652 4.31094 10.3219 4.27618 10.0787 4.24141C9.87015 4.20665 9.62687 4.17188 9.38359 4.17188H9.34884H9.31408C9.0708 4.17188 8.86228 4.20665 8.619 4.24141C8.37572 4.27618 8.1672 4.34571 7.92392 4.41524C7.50688 4.55431 7.08983 4.7629 6.77704 5.04103C6.63803 5.14533 6.49901 5.24963 6.39475 5.35393C6.35999 5.35393 6.35999 5.38869 6.32524 5.42346C6.32524 5.42346 6.32524 5.42346 6.29049 5.45823C6.29049 5.45823 6.29049 5.49299 6.25573 5.49299C5.5259 6.25784 5.0741 7.26606 5.0741 8.41335V8.48288V8.55241C5.0741 9.69969 5.5259 10.7079 6.25573 11.4728C6.25573 11.4728 6.25573 11.5075 6.29049 11.5075C6.29049 11.5075 6.32524 11.5075 6.32524 11.5423C6.35999 11.5771 6.35999 11.5771 6.39475 11.6118C6.49901 11.7161 6.63803 11.8552 6.77704 11.9247C7.12458 12.2028 7.50688 12.4114 7.92392 12.5505C8.13245 12.6548 8.37572 12.6896 8.619 12.7243C8.82753 12.7939 9.0708 12.7939 9.27933 12.7939ZM10.7042 11.9943C10.4957 12.0638 10.2872 12.1681 10.0787 12.2029C10.0787 12.1333 10.0787 12.0986 10.0787 12.029C10.0787 11.9595 10.0787 11.9247 10.0787 11.8552C10.2524 11.6814 10.3567 11.4728 10.3567 11.2294C10.3567 11.1251 10.3567 11.0208 10.3219 10.9513C10.3567 11.0208 10.3915 11.1251 10.461 11.1946C10.5305 11.2642 10.6 11.3337 10.7042 11.3685C10.8433 11.438 10.9823 11.438 11.0865 11.438C11.1213 11.5075 11.156 11.5423 11.1908 11.5771C11.2256 11.6118 11.2951 11.6466 11.3298 11.6814C11.156 11.7857 10.9475 11.9247 10.7042 11.9943ZM11.9901 11.1599C11.9554 11.1599 11.9554 11.1599 11.9901 11.1599C11.9206 11.1946 11.9206 11.2294 11.8859 11.2294C11.8164 11.2642 11.6774 11.2294 11.6078 11.1599C11.5383 11.0903 11.5383 11.0208 11.5383 10.9513C11.2951 11.0903 10.9823 11.0903 10.739 10.9513C10.6695 10.8817 10.6 10.8122 10.5305 10.7427L10.0439 9.56062V9.52586C10.0092 9.45633 10.0092 9.35203 10.0439 9.31726L10.0787 9.2825C10.1482 9.21297 10.2524 9.21296 10.3219 9.24773L10.7042 9.42156L11.5036 9.76922C11.8511 9.90829 11.9206 10.4993 11.7121 10.7774C11.7469 10.7774 11.8164 10.7774 11.8511 10.7774C11.8859 10.7774 11.9206 10.8122 11.9206 10.847C12.0596 10.9165 12.0596 11.0556 11.9901 11.1599ZM12.4419 10.5688C12.4072 10.5341 12.3724 10.4993 12.3724 10.4645L12.3377 10.4298C12.3029 10.395 12.2682 10.3602 12.1987 10.3255C12.2334 10.0821 12.1639 9.87352 11.9901 9.66492C11.9554 9.63016 11.9206 9.63016 11.9206 9.59539C11.8859 9.56063 11.8164 9.52586 11.7816 9.52586C11.8164 9.52586 11.8859 9.56062 11.9206 9.56062H12.0596C12.1639 9.56062 12.3029 9.52586 12.4072 9.49109C12.5114 9.42156 12.581 9.35203 12.6505 9.2825C12.72 9.2825 12.7895 9.2825 12.8242 9.2825C12.8937 9.2825 12.9633 9.2825 12.998 9.2825C12.8937 9.73446 12.6852 10.1864 12.4419 10.5688ZM12.7895 8.76101C12.72 8.76101 12.6505 8.72624 12.581 8.69147C12.5462 8.8653 12.4419 8.9696 12.3377 9.0739C12.1987 9.1782 12.0249 9.24773 11.8511 9.24773C11.8164 9.24773 11.7469 9.24773 11.7121 9.24773L10.7042 8.83054L10.4957 8.76101C10.4262 8.72624 10.3567 8.65671 10.3567 8.55241C10.3567 8.44811 10.4262 8.37858 10.4957 8.34381L10.7042 8.27428L11.7121 7.85709C11.7816 7.82232 11.8164 7.82232 11.8511 7.82232C12.0249 7.82232 12.1987 7.89185 12.3377 8.03092C12.4419 8.13521 12.5462 8.27428 12.581 8.41335C12.6157 8.34381 12.6852 8.34381 12.7895 8.34381C12.9285 8.34381 13.0328 8.44811 13.0328 8.58718C13.0675 8.65671 12.9285 8.76101 12.7895 8.76101ZM12.3377 6.57074C12.4072 6.50121 12.4072 6.46644 12.4419 6.43167C12.6852 6.8141 12.8937 7.26606 12.9633 7.75279C12.8937 7.75279 12.8242 7.71802 12.7895 7.71802C12.72 7.71802 12.6505 7.71802 12.6157 7.71802C12.5462 7.64849 12.4767 7.54419 12.3724 7.50942C12.2682 7.47466 12.1292 7.43989 12.0249 7.43989C11.9554 7.43989 11.9206 7.43989 11.8859 7.43989C11.8511 7.43989 11.7816 7.43989 11.7469 7.47466C11.8164 7.47466 11.8511 7.43989 11.8859 7.40512C11.9206 7.40512 11.9554 7.37036 11.9554 7.33559C12.1292 7.16176 12.1987 6.9184 12.1987 6.67504C12.2334 6.64027 12.3029 6.60551 12.3377 6.57074ZM11.6078 5.80589C11.6774 5.73635 11.8164 5.70159 11.8859 5.77112C11.9206 5.77112 11.9206 5.77112 11.9554 5.80589L11.9901 5.84065C12.0596 5.94495 12.0596 6.08401 11.9901 6.18831C11.9554 6.22308 11.9206 6.22308 11.9206 6.25784C11.8859 6.25784 11.8511 6.29261 11.7816 6.29261C11.9901 6.60551 11.8859 7.09223 11.5383 7.30083L10.739 7.64849L10.3567 7.82232C10.2872 7.85708 10.1482 7.85709 10.1134 7.78755L10.0787 7.75279C10.0439 7.68325 10.0439 7.57896 10.0787 7.50942V7.47466L10.5652 6.29261C10.6 6.18831 10.6695 6.11878 10.7737 6.04925C11.017 5.91018 11.3646 5.91018 11.5731 6.04925C11.5036 5.97972 11.5383 5.87542 11.6078 5.80589ZM10.0787 4.79767C10.2872 4.8672 10.5305 4.90197 10.7042 5.00626C10.9128 5.11056 11.156 5.21486 11.3646 5.35393C11.2951 5.38869 11.2603 5.42346 11.2256 5.45823C11.1908 5.49299 11.156 5.56252 11.1213 5.59729C10.9823 5.59729 10.8433 5.59729 10.739 5.66682C10.6695 5.70159 10.5652 5.77112 10.4957 5.84065C10.4262 5.91018 10.3567 6.01448 10.3567 6.08401C10.3915 6.01448 10.3915 5.91019 10.3915 5.80589C10.3915 5.56252 10.2872 5.31916 10.1134 5.1801C10.1134 5.11056 10.1134 5.0758 10.1134 5.00626C10.1134 4.90197 10.1134 4.83243 10.0787 4.79767ZM8.619 5.70159C8.68851 5.45822 8.89703 5.21486 9.14031 5.14533C9.0708 5.11056 9.0708 5.04103 9.0708 4.93673C9.0708 4.79767 9.17507 4.69337 9.31408 4.69337C9.4531 4.69337 9.55736 4.79767 9.55736 4.93673C9.55736 5.00627 9.52261 5.11056 9.48785 5.14533C9.69638 5.21486 9.93965 5.42346 10.0092 5.66682C10.0439 5.80588 10.0787 5.91018 10.0092 6.04925L9.52261 7.26606C9.48785 7.33559 9.41834 7.43989 9.31408 7.43989C9.20982 7.43989 9.14031 7.37036 9.10556 7.26606L8.619 6.04925C8.58425 5.94495 8.58425 5.84065 8.619 5.70159ZM9.87015 8.48288C9.87015 8.79577 9.62687 9.03913 9.34884 9.03913C9.03605 9.03913 8.82753 8.79577 8.82753 8.48288C8.82753 8.20475 9.07081 7.96138 9.34884 7.96138C9.62687 7.96138 9.87015 8.20475 9.87015 8.48288ZM7.92392 4.9715C8.13245 4.90196 8.34097 4.83244 8.58425 4.7629C8.58425 4.83244 8.54949 4.90197 8.54949 4.93673C8.54949 5.00627 8.54949 5.0758 8.54949 5.11056C8.37572 5.24963 8.27146 5.45822 8.27146 5.73635C8.27146 5.84065 8.27146 5.94495 8.34097 6.01448C8.30622 5.94495 8.27146 5.84065 8.20195 5.77112C8.13245 5.70159 8.06294 5.63205 7.95868 5.59729C7.81966 5.56252 7.68065 5.52776 7.57638 5.52776C7.54163 5.49299 7.50688 5.42346 7.47212 5.38869C7.43737 5.35392 7.40261 5.31916 7.33311 5.28439C7.47212 5.21486 7.7154 5.0758 7.92392 4.9715ZM6.67278 5.84065C6.70753 5.80588 6.70753 5.80588 6.74229 5.77112C6.74229 5.77112 6.77704 5.77112 6.77704 5.73635C6.8813 5.70158 6.98557 5.73635 7.05507 5.80589C7.12458 5.87542 7.12458 5.94495 7.12458 6.01448C7.33311 5.87542 7.68065 5.87542 7.92392 6.01448C7.99343 6.08401 8.06294 6.15354 8.13245 6.25784L8.619 7.47466C8.65376 7.54419 8.65376 7.61372 8.619 7.68325C8.619 7.68325 8.619 7.71802 8.58425 7.75279C8.51474 7.82232 8.41048 7.82232 8.30622 7.78755L7.92392 7.61372L7.12458 7.26606C6.8118 7.05747 6.70753 6.6055 6.8813 6.25784C6.84655 6.25784 6.8118 6.25785 6.74229 6.22308C6.70753 6.22308 6.67278 6.18831 6.67278 6.15355C6.60327 6.08402 6.60327 5.94495 6.67278 5.84065ZM6.22098 6.43167C6.25573 6.46644 6.29049 6.50121 6.29049 6.53597L6.32524 6.57074C6.35999 6.60551 6.4295 6.64027 6.46426 6.67504C6.4295 6.9184 6.53376 7.16176 6.67278 7.33559C6.70753 7.37036 6.74229 7.40512 6.74229 7.40512C6.77704 7.43989 6.84655 7.47466 6.8813 7.47466C6.8118 7.43989 6.77704 7.43989 6.74229 7.43989C6.70753 7.43989 6.67278 7.43989 6.60327 7.43989C6.46426 7.43989 6.35999 7.47466 6.25573 7.50942C6.15147 7.57896 6.08196 7.64849 6.01245 7.71802C5.94295 7.71802 5.87344 7.71802 5.83868 7.71802C5.76918 7.71802 5.69967 7.71802 5.66491 7.71802C5.76918 7.2313 5.94295 6.8141 6.22098 6.43167ZM5.59541 8.48288C5.59541 8.30905 5.69967 8.23951 5.83868 8.23951C5.90819 8.23951 5.9777 8.27428 6.04721 8.30905C6.08196 8.16998 6.18622 8.03092 6.29049 7.92662C6.4295 7.82232 6.60327 7.71802 6.77704 7.71802C6.8118 7.71802 6.8813 7.71802 6.91606 7.75279L7.92392 8.16998L8.13245 8.27428C8.20196 8.30904 8.27146 8.37858 8.27146 8.48288C8.27146 8.58718 8.20196 8.6567 8.13245 8.69147L7.92392 8.76101L6.91606 9.1782C6.84655 9.1782 6.8118 9.1782 6.77704 9.1782C6.60327 9.1782 6.4295 9.10867 6.29049 9.00437C6.18622 8.90007 6.08196 8.761 6.04721 8.62194C6.01246 8.69147 5.94295 8.69147 5.83868 8.69147C5.69967 8.761 5.59541 8.65671 5.59541 8.48288ZM6.32524 10.4298C6.25573 10.4993 6.25573 10.5341 6.22098 10.5688C5.9777 10.1864 5.76918 9.73446 5.69967 9.2825C5.76918 9.2825 5.83869 9.2825 5.87344 9.2825C5.94295 9.2825 6.01246 9.2825 6.04721 9.2825C6.11672 9.3868 6.18622 9.45633 6.29049 9.49109C6.39475 9.52586 6.53376 9.56062 6.63803 9.56062H6.77704C6.84655 9.56062 6.8813 9.52586 6.91606 9.52586C6.84655 9.52586 6.8118 9.59539 6.77704 9.59539C6.74229 9.63016 6.70753 9.63016 6.70753 9.66492C6.53376 9.83875 6.46426 10.0821 6.49901 10.3255C6.39475 10.3255 6.35999 10.395 6.32524 10.4298ZM7.05507 11.1599C6.98557 11.2294 6.84655 11.2642 6.77704 11.2294C6.77704 11.2294 6.74229 11.2294 6.70753 11.1946C6.70753 11.1599 6.67278 11.1599 6.63803 11.1251C6.56852 11.0208 6.56852 10.8817 6.67278 10.7774C6.70753 10.7427 6.74229 10.7427 6.74229 10.7079C6.77704 10.7079 6.8118 10.6731 6.8813 10.7079C6.70753 10.4298 6.74229 9.83876 7.12458 9.69969L7.92392 9.35203L8.30622 9.1782C8.37573 9.14343 8.47999 9.14343 8.54949 9.21296C8.58425 9.21296 8.58425 9.24773 8.58425 9.2825C8.619 9.35203 8.619 9.42156 8.58425 9.49109L8.09769 10.7079C8.02819 10.7774 7.99343 10.8817 7.88917 10.9165C7.64589 11.0556 7.33311 11.0903 7.08983 10.9165C7.12458 11.0208 7.08983 11.1251 7.05507 11.1599ZM7.92392 11.9943C7.68065 11.89 7.47212 11.7857 7.2636 11.6466C7.33311 11.6118 7.36786 11.5771 7.40261 11.5423C7.43737 11.5075 7.47212 11.4728 7.50688 11.4032C7.64589 11.4032 7.78491 11.4032 7.88917 11.3337C7.95868 11.2989 8.06294 11.2294 8.13245 11.1599C8.20196 11.0903 8.27146 11.0208 8.27146 10.9165C8.23671 10.986 8.20195 11.0903 8.20195 11.1946C8.20195 11.438 8.30622 11.6814 8.47999 11.8204C8.47999 11.89 8.47999 11.9247 8.47999 11.9943C8.47999 12.0638 8.47999 12.1333 8.51474 12.1681C8.34097 12.1681 8.13245 12.0985 7.92392 11.9943ZM8.619 10.9513L9.10556 9.73445C9.14031 9.66492 9.20982 9.59539 9.31408 9.59539C9.41834 9.59539 9.48785 9.66492 9.52261 9.73445L10.0092 10.9513C10.0439 11.0556 10.0439 11.1946 10.0092 11.2989C9.93965 11.5423 9.69638 11.7509 9.48785 11.8204C9.55736 11.8552 9.55736 11.9247 9.55736 12.029C9.55736 12.1681 9.4531 12.2724 9.31408 12.2724C9.17507 12.2724 9.0708 12.1681 9.0708 12.029C9.0708 11.9595 9.10556 11.8552 9.14031 11.8204C8.89703 11.7509 8.68851 11.5423 8.619 11.2989C8.58425 11.1599 8.58425 11.0556 8.619 10.9513Z" fill="#FFCF57"/>
<path d="M53.6256 0.278076H52.5134V54.7566H53.6256V0.278076Z" fill="#FFCF57"/>
<path d="M61.6882 7.16187H66.7623C70.3072 7.16187 72.1492 8.44821 72.1492 11.16C72.1492 12.3768 71.3498 13.3502 70.5853 13.7327V13.7674C71.5584 14.0456 73.1918 15.1928 73.1918 17.1745C73.1918 19.8167 71.6279 21.6593 67.3531 21.6593H61.6882V7.16187ZM66.4148 13.1069C67.944 13.1069 68.6738 12.7244 68.6738 11.4381C68.6738 10.2213 67.8397 9.80409 66.2062 9.80409H65.1636V13.0721H66.4148V13.1069ZM67.1446 18.9476C68.9866 18.9476 69.7164 18.4609 69.7164 17.2788C69.7164 15.9577 68.9171 15.5057 66.9013 15.5057H65.1636V18.9476H67.1446Z" fill="#132944"/>
<path d="M75.1379 7.16187H78.6133V21.6593H75.1379V7.16187Z" fill="#132944"/>
<path d="M80.8031 19.33L87.4759 10.0475H81.3592V7.16187H91.7854V9.38689L85.0431 18.7737H92.2372V21.6593H80.8031V19.33Z" fill="#132944"/>
<path d="M94.635 7.16197H98.6664L104.297 17.1051H104.366L104.262 15.4711V7.1272H107.737V21.6247H103.567L98.0756 11.9249H98.0061L98.0756 13.8371V21.6247H94.6002V7.16197H94.635Z" fill="#132944"/>
<path d="M111.143 7.16187H114.618V21.6593H111.143V7.16187Z" fill="#132944"/>
<path d="M116.877 20.7553L117.885 18.1826C119.171 18.7041 120.11 19.0517 121.708 19.0517C123.446 19.0517 124.245 18.3912 124.245 17.4873C124.245 15.1232 117.364 16.0618 117.364 11.1251C117.364 8.34377 120.005 6.95312 122.577 6.95312C124.871 6.95312 126.053 7.43985 127.095 8.06564L126.087 10.6383C125.01 10.1516 124.141 9.87348 122.647 9.87348C121.534 9.87348 120.735 10.4297 120.735 11.2294C120.735 13.1415 127.755 12.9677 127.755 17.4177C127.755 20.5814 124.732 21.9721 121.743 21.9721C119.345 21.9026 117.955 21.3463 116.877 20.7553Z" fill="#132944"/>
<path d="M134.984 7.16187H138.46V21.6593H134.984V7.16187ZM138.078 13.8717L143.43 7.16187H147.878L142.005 13.9413L148.191 21.6593H143.743L138.078 13.8717Z" fill="#132944"/>
<path d="M149.824 7.16187H153.3V18.9128H159.59V21.6593H149.824V7.16187Z" fill="#132944"/>
<path d="M160.668 15.7491V7.16187H164.178V15.6448C164.178 17.8698 165.186 19.0866 167.41 19.0866C169.599 19.0866 170.642 17.8003 170.642 15.1928V7.16187H174.083V15.2624C174.083 20.3382 170.677 21.9375 167.445 21.9375C164.073 21.9375 160.668 20.4425 160.668 15.7491Z" fill="#132944"/>
<path d="M177.176 7.16187H182.25C185.795 7.16187 187.637 8.44821 187.637 11.16C187.637 12.3768 186.837 13.3502 186.073 13.7327V13.7674C187.046 14.0456 188.679 15.1928 188.679 17.1745C188.679 19.8167 187.115 21.6593 182.841 21.6593H177.141V7.16187H177.176ZM181.937 13.1069C183.466 13.1069 184.196 12.7244 184.196 11.4381C184.196 10.2213 183.362 9.80409 181.729 9.80409H180.651V13.0721H181.937V13.1069ZM182.632 18.9476C184.474 18.9476 185.204 18.4609 185.204 17.2788C185.204 15.9577 184.405 15.5057 182.389 15.5057H180.651V18.9476H182.632Z" fill="#132944"/>
<path d="M60.7847 32.6453C60.7847 28.4039 63.0784 26.5613 67.3184 26.5613C68.9866 26.5613 69.8902 26.9089 70.8286 27.2566L70.0987 29.273C68.9866 28.9949 68.4653 28.8558 67.2837 28.8558C65.1984 28.8558 63.6345 29.8641 63.6345 32.4715C63.6345 35.0442 65.3374 36.2263 67.4922 36.2263C67.7702 36.2263 68.0135 36.2263 68.222 36.2263V32.6453H71.0371V37.9298C69.7164 38.4513 68.6043 38.5904 67.1794 38.5904C63.287 38.5904 60.7847 36.6782 60.7847 32.6453Z" fill="#132944"/>
<path d="M79.0305 35.9134L77.7099 34.3837C77.5014 34.3837 77.2928 34.3837 77.0843 34.3837H76.2155V38.4165H73.4004V26.7351H77.9532C80.5945 26.7351 82.4712 27.9519 82.4712 30.5594C82.4712 31.8805 81.8456 32.993 80.5945 33.7231L81.7761 35.0094C82.4364 35.7048 83.1315 36.1567 84.4174 36.5044L83.7918 38.6599C81.4981 38.5208 80.2817 37.304 79.0305 35.9134ZM77.1886 32.402C78.8568 32.402 79.5518 31.7067 79.5518 30.5941C79.5518 29.4121 79.0653 28.9254 77.5709 28.9254H76.2155V32.402H77.1886Z" fill="#132944"/>
<path d="M89.5608 26.7351H93.1752L97.1024 38.4165H94.1831L93.071 35.0094H89.109L87.8231 38.4165H85.0081L89.5608 26.7351ZM92.4454 32.9583L91.2638 28.4734L89.9084 32.9583H92.4454Z" fill="#132944"/>
<path d="M98.319 26.7351H102.489C106.521 26.7351 109.301 28.4734 109.301 32.5411C109.301 36.5739 106.799 38.4165 102.594 38.4165H98.319V26.7351ZM102.767 36.2263C105.444 36.2263 106.486 35.0094 106.486 32.7149C106.486 30.2117 105.235 28.9601 102.42 28.9601H101.099V36.261H102.767V36.2263Z" fill="#132944"/>
<path d="M114.062 26.7351H117.677L121.604 38.4165H118.685L117.573 35.0094H113.611L112.325 38.4165H109.51L114.062 26.7351ZM116.947 32.9583L115.765 28.4734L114.41 32.9583H116.947Z" fill="#132944"/>
<path d="M126.331 26.7351H130.432C133.281 26.7351 134.776 27.7433 134.776 29.9684C134.776 30.9418 134.116 31.7067 133.525 32.0543V32.0891C134.324 32.3325 135.61 33.2364 135.61 34.8356C135.61 36.9564 134.359 38.4513 130.918 38.4513H126.331V26.7351ZM130.154 31.5328C131.37 31.5328 131.996 31.2199 131.996 30.2117C131.996 29.2035 131.335 28.8906 130.015 28.8906H129.146V31.5328H130.154ZM130.744 36.2263C132.239 36.2263 132.795 35.8438 132.795 34.9051C132.795 33.8622 132.135 33.4797 130.536 33.4797H129.146V36.261H130.744V36.2263Z" fill="#132944"/>
<path d="M137.347 26.7351H140.162V38.4165H137.347V26.7351Z" fill="#132944"/>
<path d="M142.735 26.7351H145.55V31.4633H150.52V26.7351H153.335V38.4165H150.52V33.6188H145.55V38.4165H142.735V26.7351Z" fill="#132944"/>
<path d="M158.93 26.7351H162.544L166.471 38.4165H163.552L162.44 35.0094H158.478L157.192 38.4165H154.377L158.93 26.7351ZM161.814 32.9583L160.633 28.4734L159.277 32.9583H161.814Z" fill="#132944"/>
<path d="M166.715 32.6455C166.715 28.8559 169.148 26.5614 173.11 26.5614C174.847 26.5614 175.855 26.909 176.759 27.2915L176.029 29.3079C174.917 28.995 174.465 28.8907 173.179 28.8907C171.059 28.856 169.599 30.038 169.599 32.5064C169.599 34.94 171.163 36.2611 173.527 36.2611C174.673 36.2611 175.334 36.1568 176.237 35.9135L176.828 38.0342C175.716 38.4514 174.743 38.6252 173.214 38.6252C168.904 38.5905 166.715 36.4697 166.715 32.6455ZM170.573 24.4754L174.639 22.2852L175.508 23.8844L171.302 25.7965L170.573 24.4754Z" fill="#132944"/>
<path d="M182.007 26.7351H185.621L189.548 38.4165H186.629L185.517 35.0094H181.589L180.304 38.4165H177.489L182.007 26.7351ZM184.891 32.9583L183.709 28.4734L182.354 32.9583H184.891Z" fill="#132944"/>
<path d="M60.2634 46.343L62.4529 43.0402H60.4372V42.623H63.009V43.0055L60.7847 46.343H63.1133V46.7602H60.2634V46.343Z" fill="#132944"/>
<path d="M63.5997 45.8913C63.5997 45.0917 64.2948 44.9178 64.8161 44.9178H65.5807V44.5006C65.5807 43.9792 65.3374 43.8749 64.8509 43.8749C64.5033 43.8749 64.2601 43.9444 63.982 44.0487L63.8778 43.701C64.121 43.5967 64.4686 43.4924 64.9204 43.4924C65.6155 43.4924 66.0325 43.7358 66.0325 44.3616V46.1347C66.0325 46.378 66.241 46.4128 66.38 46.4128L66.3453 46.7604C66.3105 46.7604 66.241 46.7604 66.2063 46.7604C65.9282 46.7604 65.6502 46.6562 65.5807 46.3433C65.4069 46.4823 65.0594 46.7604 64.5033 46.7604C63.982 46.7952 63.5997 46.4823 63.5997 45.8913ZM65.5807 46.0651V45.2307L64.8161 45.2655C64.3296 45.3003 64.0515 45.5089 64.0515 45.8913C64.0515 46.2737 64.3296 46.4476 64.6771 46.4476C65.0246 46.4128 65.3374 46.239 65.5807 46.0651Z" fill="#132944"/>
<path d="M68.5693 46.656V42.345H69.0211V46.3431C69.1602 46.3778 69.4034 46.4474 69.6467 46.4474C70.4113 46.4474 70.7241 45.8911 70.7241 45.0567C70.7241 44.5005 70.5503 43.9094 69.8205 43.9094C69.6467 43.9094 69.5077 43.9442 69.3687 43.979L69.3339 43.6313C69.4382 43.5618 69.6467 43.527 69.89 43.527C70.7241 43.527 71.1759 44.0485 71.1759 45.0915C71.1759 46.3778 70.4461 46.8646 69.5424 46.8646C69.2297 46.8298 68.8474 46.7255 68.5693 46.656Z" fill="#132944"/>
<path d="M71.8364 45.196C71.8364 44.0835 72.4272 43.4924 73.3308 43.4924C74.2345 43.4924 74.721 44.0835 74.721 45.1612C74.721 46.3085 74.0954 46.83 73.2613 46.83C72.3925 46.83 71.8364 46.239 71.8364 45.196ZM74.2345 45.1612C74.2345 44.5702 74.0607 43.8401 73.2613 43.8401C72.462 43.8401 72.2882 44.5354 72.2882 45.1612C72.2882 45.8218 72.5315 46.4476 73.2613 46.4476C74.0607 46.4476 74.2345 45.787 74.2345 45.1612Z" fill="#132944"/>
<path d="M75.5204 42.345H75.9716V46.7603H75.5204V42.345Z" fill="#132944"/>
<path d="M75.9375 47.9772L76.007 47.5948C76.0765 47.6296 76.2503 47.6296 76.3545 47.6296C76.8411 47.6296 76.9454 47.3167 76.9454 46.83V43.5272H77.3972V46.83C77.3972 47.7686 76.9106 48.012 76.3198 48.012C76.1808 48.0468 76.0418 48.012 75.9375 47.9772ZM76.8063 42.5885L77.1886 42.2061L77.5709 42.5885L77.1886 42.9709L76.8063 42.5885Z" fill="#132944"/>
<path d="M78.4047 45.5784V43.562H78.8565V45.5089C78.8565 45.9956 78.8912 46.4128 79.482 46.4128C79.8991 46.4128 80.2814 46.2042 80.5247 46.0304V43.5968H80.9765V46.7953H80.5247V46.4128C80.2119 46.6214 79.8991 46.8648 79.3778 46.8648C78.4394 46.83 78.4047 46.1347 78.4047 45.5784Z" fill="#132944"/>
<path d="M83.4441 42.345H83.8959V46.7603H83.4441V42.345ZM84.9385 46.204L84.0349 45.0567L85.3903 43.5618H85.9116L84.5562 45.0567L85.2165 45.8563C85.4946 46.204 85.8074 46.4126 86.0159 46.4474L85.9116 46.795C85.6683 46.795 85.3208 46.7255 84.9385 46.204Z" fill="#132944"/>
<path d="M86.3289 45.196C86.3289 44.0835 86.9197 43.4924 87.8233 43.4924C88.7269 43.4924 89.2134 44.0835 89.2134 45.1612C89.2134 46.3085 88.5879 46.83 87.7538 46.83C86.8849 46.83 86.3289 46.239 86.3289 45.196ZM88.7269 45.1612C88.7269 44.5702 88.5531 43.8401 87.7538 43.8401C86.9544 43.8401 86.7807 44.5354 86.7807 45.1612C86.7807 45.8218 87.0239 46.4476 87.7538 46.4476C88.5531 46.4476 88.7269 45.787 88.7269 45.1612Z" fill="#132944"/>
<path d="M90.0127 43.562H90.4645V43.9444C90.7773 43.701 91.0901 43.4924 91.5419 43.4924C91.9937 43.4924 92.2717 43.701 92.376 43.9792C92.654 43.7706 93.0015 43.4924 93.5228 43.4924C94.4265 43.4924 94.496 44.153 94.496 44.7092V46.7604H94.0442V44.7788C94.0442 44.2921 93.9746 43.8749 93.4186 43.8749C93.0363 43.8749 92.7235 44.0487 92.4455 44.2573C92.4802 44.3964 92.4802 44.5354 92.4802 44.6745V46.7257H92.0284V44.744C92.0284 44.2573 91.9589 43.8401 91.4376 43.8401C91.0901 43.8401 90.7425 44.0139 90.4645 44.2573V46.6909H90.0127V43.562Z" fill="#132944"/>
<path d="M95.4343 45.5784V43.562H95.8861V45.5089C95.8861 45.9956 95.9209 46.4128 96.5117 46.4128C96.9287 46.4128 97.311 46.2042 97.5543 46.0304V43.5968H98.0061V46.7953H97.5543V46.4128C97.2415 46.6214 96.9287 46.8648 96.4074 46.8648C95.5038 46.83 95.4343 46.1347 95.4343 45.5784Z" fill="#132944"/>
<path d="M98.9791 43.5621H99.4309V43.9097C99.7785 43.6664 100.057 43.4578 100.578 43.4578C101.481 43.4578 101.551 44.1183 101.551 44.6746V46.7258H101.099V44.7441C101.099 44.1879 100.995 43.8402 100.474 43.8402C100.057 43.8402 99.7437 44.0488 99.4657 44.2226V46.691H99.0139V43.5621H98.9791Z" fill="#132944"/>
<path d="M102.316 42.5885L102.698 42.2061L103.08 42.5885L102.698 42.9709L102.316 42.5885ZM102.489 43.5619H102.941V46.7604H102.489V43.5619Z" fill="#132944"/>
<path d="M103.949 42.345H104.401V46.7603H103.949V42.345ZM105.409 46.204L104.505 45.0567L105.86 43.5618H106.382L105.026 45.0567L105.687 45.8563C105.965 46.204 106.277 46.4126 106.486 46.4474L106.382 46.795C106.173 46.795 105.826 46.7255 105.409 46.204Z" fill="#132944"/>
<path d="M106.834 45.8913C106.834 45.0917 107.529 44.9178 108.05 44.9178H108.815V44.5006C108.815 43.9792 108.571 43.8749 108.085 43.8749C107.737 43.8749 107.494 43.9444 107.216 44.0487L107.112 43.701C107.355 43.5967 107.703 43.4924 108.154 43.4924C108.849 43.4924 109.267 43.7358 109.267 44.3616V46.1347C109.267 46.378 109.475 46.4128 109.614 46.4128L109.579 46.7604C109.545 46.7604 109.475 46.7604 109.44 46.7604C109.162 46.7604 108.884 46.6562 108.815 46.3433C108.641 46.4823 108.293 46.7604 107.737 46.7604C107.216 46.7952 106.834 46.4823 106.834 45.8913ZM108.815 46.0651V45.2307L108.05 45.2655C107.564 45.3003 107.286 45.5089 107.286 45.8913C107.286 46.2737 107.564 46.4476 107.911 46.4476C108.224 46.4128 108.571 46.239 108.815 46.0651Z" fill="#132944"/>
<path d="M110.1 45.2307C110.1 44.0835 110.691 43.4924 111.63 43.4924C112.012 43.4924 112.325 43.5967 112.464 43.701L112.325 44.0835C112.186 44.0139 111.942 43.9096 111.63 43.9096C110.969 43.9096 110.587 44.3268 110.587 45.2307C110.587 46.0304 110.865 46.4476 111.734 46.4476C112.012 46.4476 112.186 46.4128 112.394 46.3433L112.464 46.7257C112.255 46.7952 112.047 46.8647 111.699 46.8647C110.622 46.83 110.1 46.3085 110.1 45.2307Z" fill="#132944"/>
<path d="M113.055 42.5885L113.437 42.2061L113.819 42.5885L113.437 42.9709L113.055 42.5885ZM113.194 43.5619H113.646V46.7604H113.194V43.5619Z" fill="#132944"/>
<path d="M113.645 47.9772L113.715 47.5948C113.784 47.6296 113.958 47.6296 114.062 47.6296C114.549 47.6296 114.653 47.3167 114.653 46.83V43.5272H115.105V46.83C115.105 47.7686 114.618 48.012 114.028 48.012C113.889 48.0468 113.715 48.012 113.645 47.9772ZM114.479 42.5885L114.862 42.2061L115.244 42.5885L114.862 42.9709L114.479 42.5885Z" fill="#132944"/>
<path d="M116.078 45.5784V43.562H116.53V45.5089C116.53 45.9956 116.565 46.4128 117.156 46.4128C117.573 46.4128 117.955 46.2042 118.198 46.0304V43.5968H118.65V46.7953H118.198V46.4128C117.885 46.6214 117.573 46.8648 117.051 46.8648C116.148 46.83 116.078 46.1347 116.078 45.5784Z" fill="#132944"/>
<path d="M120.874 46.6909L120.944 46.3085C121.222 46.378 121.534 46.4476 121.813 46.4476C122.264 46.4476 122.577 46.2737 122.577 45.9608C122.577 45.2307 120.978 45.4393 120.978 44.3964C120.978 43.8053 121.465 43.4924 122.056 43.4924C122.299 43.4924 122.612 43.562 122.855 43.6315L122.751 44.0139C122.542 43.9444 122.299 43.8749 122.056 43.8749C121.604 43.8749 121.43 44.0835 121.43 44.3268C121.43 45.0569 123.029 44.8483 123.029 45.8913C123.029 46.5866 122.369 46.7952 121.778 46.7952C121.465 46.83 121.117 46.7605 120.874 46.6909Z" fill="#132944"/>
<path d="M123.516 45.8913C123.516 45.0917 124.211 44.9178 124.732 44.9178H125.496V44.5006C125.496 43.9792 125.253 43.8749 124.767 43.8749C124.419 43.8749 124.176 43.9444 123.898 44.0487L123.794 43.701C124.037 43.5967 124.384 43.4924 124.836 43.4924C125.531 43.4924 125.948 43.7358 125.948 44.3616V46.1347C125.948 46.378 126.157 46.4128 126.296 46.4128L126.261 46.7604C126.226 46.7604 126.157 46.7604 126.122 46.7604C125.844 46.7604 125.566 46.6562 125.496 46.3433C125.323 46.4823 124.975 46.7604 124.419 46.7604C123.863 46.7952 123.516 46.4823 123.516 45.8913ZM125.496 46.0651V45.2307L124.732 45.2655C124.245 45.3003 123.967 45.5089 123.967 45.8913C123.967 46.2737 124.245 46.4476 124.593 46.4476C124.906 46.4128 125.253 46.239 125.496 46.0651Z" fill="#132944"/>
<path d="M128.485 43.562H128.937V43.8401C129.215 43.6315 129.493 43.4924 129.876 43.4924C130.64 43.4924 131.127 44.0487 131.127 45.0917C131.127 46.378 130.397 46.7952 129.563 46.7952C129.354 46.7952 129.111 46.7604 128.972 46.7257V48.012H128.52V43.562H128.485ZM130.675 45.1264C130.675 44.5354 130.501 43.8749 129.806 43.8749C129.424 43.8749 129.146 44.0835 128.972 44.1878V46.378C129.076 46.378 129.319 46.4476 129.563 46.4476C130.362 46.4128 130.675 45.8913 130.675 45.1264Z" fill="#132944"/>
<path d="M131.752 45.196C131.752 44.0835 132.343 43.4924 133.247 43.4924C134.15 43.4924 134.637 44.0835 134.637 45.1612C134.637 46.3085 134.011 46.83 133.177 46.83C132.308 46.83 131.752 46.239 131.752 45.196ZM134.15 45.1612C134.15 44.5702 133.976 43.8401 133.177 43.8401C132.378 43.8401 132.204 44.5354 132.204 45.1612C132.204 45.8218 132.447 46.4476 133.177 46.4476C133.976 46.4476 134.15 45.787 134.15 45.1612Z" fill="#132944"/>
<path d="M135.193 46.6909L135.262 46.3085C135.54 46.378 135.853 46.4476 136.131 46.4476C136.583 46.4476 136.896 46.2737 136.896 45.9608C136.896 45.2307 135.297 45.4393 135.297 44.3964C135.297 43.8053 135.784 43.4924 136.374 43.4924C136.618 43.4924 136.93 43.562 137.174 43.6315L137.069 44.0139C136.861 43.9444 136.618 43.8749 136.374 43.8749C135.923 43.8749 135.749 44.0835 135.749 44.3268C135.749 45.0569 137.348 44.8483 137.348 45.8913C137.348 46.5866 136.687 46.7952 136.096 46.7952C135.784 46.83 135.401 46.7605 135.193 46.6909Z" fill="#132944"/>
<path d="M138.043 42.345H138.494V46.7603H138.043V42.345Z" fill="#132944"/>
<path d="M139.294 45.196C139.294 44.0835 139.884 43.4924 140.788 43.4924C141.692 43.4924 142.178 44.0835 142.178 45.1612C142.178 46.3085 141.553 46.83 140.718 46.83C139.85 46.83 139.294 46.239 139.294 45.196ZM141.726 45.1612C141.726 44.5702 141.553 43.8401 140.753 43.8401C139.954 43.8401 139.78 44.5354 139.78 45.1612C139.78 45.8218 140.023 46.4476 140.753 46.4476C141.518 46.4476 141.726 45.787 141.726 45.1612Z" fill="#132944"/>
<path d="M142.595 43.5619H143.082L143.742 45.7521L143.951 46.4127L144.159 45.7174L144.924 43.5271H145.411L144.264 46.7256H143.638L142.595 43.5619Z" fill="#132944"/>
<path d="M146.001 43.5621H146.453V43.9097C146.801 43.6664 147.079 43.4578 147.6 43.4578C148.504 43.4578 148.573 44.1183 148.573 44.6746V46.7258H148.121V44.7441C148.121 44.1879 148.017 43.8402 147.496 43.8402C147.079 43.8402 146.766 44.0488 146.488 44.2226V46.691H146.036V43.5621H146.001Z" fill="#132944"/>
<path d="M149.303 45.196C149.303 44.0835 149.894 43.4924 150.797 43.4924C151.701 43.4924 152.188 44.0835 152.188 45.1612C152.188 46.3085 151.562 46.83 150.728 46.83C149.859 46.83 149.303 46.239 149.303 45.196ZM151.736 45.1612C151.736 44.5702 151.562 43.8401 150.763 43.8401C149.963 43.8401 149.79 44.5354 149.79 45.1612C149.79 45.8218 150.033 46.4476 150.763 46.4476C151.527 46.4476 151.736 45.787 151.736 45.1612Z" fill="#132944"/>
<path d="M152.987 43.562H153.439V43.9444C153.752 43.701 154.064 43.4924 154.516 43.4924C154.968 43.4924 155.246 43.701 155.35 43.9792C155.628 43.7706 155.976 43.4924 156.497 43.4924C157.401 43.4924 157.47 44.153 157.47 44.7092V46.7604H157.018V44.7788C157.018 44.2921 156.949 43.8749 156.393 43.8749C156.011 43.8749 155.698 44.0487 155.42 44.2573C155.454 44.3964 155.454 44.5354 155.454 44.6745V46.7257H155.003V44.744C155.003 44.2573 154.933 43.8401 154.412 43.8401C154.064 43.8401 153.717 44.0139 153.439 44.2573V46.6909H152.987V43.562Z" fill="#132944"/>
<path d="M159.694 46.3432L161.571 43.9443H159.833V43.5271H162.092V43.9095L160.181 46.3084H162.092V46.7256H159.66V46.3432H159.694Z" fill="#132944"/>
<path d="M162.648 45.8913C162.648 45.0917 163.344 44.9178 163.865 44.9178H164.629V44.5006C164.629 43.9792 164.386 43.8749 163.9 43.8749C163.552 43.8749 163.309 43.9444 163.031 44.0487L162.926 43.701C163.17 43.5967 163.517 43.4924 163.969 43.4924C164.664 43.4924 165.081 43.7358 165.081 44.3616V46.1347C165.081 46.378 165.29 46.4128 165.429 46.4128L165.394 46.7604C165.359 46.7604 165.29 46.7604 165.255 46.7604C164.977 46.7604 164.699 46.6562 164.629 46.3433C164.456 46.4823 164.108 46.7604 163.552 46.7604C163.031 46.7952 162.648 46.4823 162.648 45.8913ZM164.629 46.0651V45.2307L163.865 45.2655C163.378 45.3003 163.1 45.5089 163.1 45.8913C163.1 46.2737 163.378 46.4476 163.726 46.4476C164.073 46.4128 164.386 46.239 164.629 46.0651Z" fill="#132944"/>
<path d="M165.116 47.9772L165.186 47.5948C165.255 47.6296 165.429 47.6296 165.533 47.6296C166.02 47.6296 166.124 47.3167 166.124 46.83V43.5272H166.576V46.83C166.576 47.7686 166.089 48.012 165.498 48.012C165.359 48.0468 165.186 48.012 165.116 47.9772ZM165.985 42.5885L166.367 42.2061L166.75 42.5885L166.367 42.9709L165.985 42.5885Z" fill="#132944"/>
<path d="M167.41 45.2307C167.41 43.9792 168.035 43.4924 168.8 43.4924C169.599 43.4924 169.981 44.0139 169.981 45.0917V45.2655H167.861C167.861 46.239 168.383 46.4476 168.974 46.4476C169.286 46.4476 169.53 46.378 169.808 46.3085L169.877 46.6909C169.634 46.7952 169.286 46.8647 168.869 46.8647C168 46.83 167.41 46.4476 167.41 45.2307ZM169.495 44.8831C169.495 44.2225 169.252 43.8401 168.73 43.8401C168.279 43.8401 167.896 44.1878 167.861 44.8831H169.495Z" fill="#132944"/>
<path d="M170.573 45.2306C170.573 44.0137 171.233 43.4922 172.171 43.4922C172.38 43.4922 172.519 43.527 172.727 43.5618V42.345H173.179V46.7603H172.727V46.4474C172.484 46.656 172.275 46.795 171.858 46.795C171.372 46.795 170.573 46.5517 170.573 45.2306ZM172.727 46.0649V43.9442C172.623 43.9094 172.414 43.8399 172.136 43.8399C171.302 43.8399 171.059 44.5005 171.059 45.161C171.059 45.9954 171.441 46.3778 171.928 46.3778C172.275 46.4126 172.588 46.204 172.727 46.0649Z" fill="#132944"/>
<path d="M174.152 43.5621H174.604V43.9097C174.951 43.6664 175.229 43.4578 175.751 43.4578C176.654 43.4578 176.724 44.1183 176.724 44.6746V46.7258H176.272V44.7441C176.272 44.1879 176.168 43.8402 175.646 43.8402C175.229 43.8402 174.917 44.0488 174.639 44.2226V46.691H174.187V43.5621H174.152Z" fill="#132944"/>
<path d="M177.523 42.5885L177.905 42.2061L178.288 42.5885L177.905 42.9709L177.523 42.5885ZM177.697 43.5619H178.149V46.7604H177.697V43.5619Z" fill="#132944"/>
<path d="M178.948 45.2307C178.948 44.0835 179.539 43.4924 180.477 43.4924C180.86 43.4924 181.172 43.5967 181.311 43.701L181.172 44.0835C181.033 44.0139 180.79 43.9096 180.477 43.9096C179.817 43.9096 179.435 44.3268 179.435 45.2307C179.435 46.0304 179.713 46.4476 180.582 46.4476C180.86 46.4476 181.033 46.4128 181.242 46.3433L181.311 46.7257C181.103 46.7952 180.894 46.8647 180.547 46.8647C179.469 46.83 178.948 46.3085 178.948 45.2307Z" fill="#132944"/>
<path d="M181.867 45.196C181.867 44.0835 182.458 43.4924 183.362 43.4924C184.265 43.4924 184.752 44.0835 184.752 45.1612C184.752 46.3085 184.126 46.83 183.292 46.83C182.389 46.83 181.867 46.239 181.867 45.196ZM184.265 45.1612C184.265 44.5702 184.092 43.8401 183.292 43.8401C182.493 43.8401 182.319 44.5354 182.319 45.1612C182.319 45.8218 182.562 46.4476 183.292 46.4476C184.092 46.4476 184.265 45.787 184.265 45.1612Z" fill="#132944"/>
<path d="M185.517 43.562H185.968V43.9444C186.281 43.701 186.594 43.4924 187.046 43.4924C187.498 43.4924 187.776 43.701 187.88 43.9792C188.158 43.7706 188.505 43.4924 189.027 43.4924C189.93 43.4924 190 44.153 190 44.7092V46.7604H189.583V44.7788C189.583 44.2921 189.513 43.8749 188.957 43.8749C188.575 43.8749 188.262 44.0487 187.984 44.2573C188.019 44.3964 188.019 44.5354 188.019 44.6745V46.7257H187.567V44.744C187.567 44.2573 187.498 43.8401 186.976 43.8401C186.629 43.8401 186.281 44.0139 186.003 44.2573V46.6909H185.551V43.562H185.517Z" fill="#132944"/>
</svg>
